<?xml version="1.0" encoding="utf-8"?>
<svg version="1.1" xmlns:xlink="http://www.w3.org/1999/xlink" width="23px" height="15px" xmlns="http://www.w3.org/2000/svg">
  <g transform="matrix(1 0 0 1 -15 -56 )">
    <path d="M 22.5845161290323 2.07070707070707  C 22.8615053763441 2.30639730639731  23 2.59259259259259  23 2.92929292929293  C 23 3.26599326599326  22.8615053763441 3.55218855218855  22.5845161290323 3.78787878787879  L 11.8412903225806 12.9292929292929  L 9.82322580645161 14.6464646464646  C 9.54623655913979 14.8821548821549  9.20989247311828 15  8.8141935483871 15  C 8.41849462365591 15  8.08215053763441 14.8821548821549  7.80516129032258 14.6464646464646  L 5.78709677419355 12.9292929292929  L 0.415483870967742 8.35858585858586  C 0.138494623655914 8.12289562289562  0 7.83670033670034  0 7.5  C 0 7.16329966329966  0.138494623655914 6.87710437710438  0.415483870967742 6.64141414141414  L 2.43354838709677 4.92424242424242  C 2.7105376344086 4.68855218855219  3.04688172043011 4.57070707070707  3.44258064516129 4.57070707070707  C 3.83827956989247 4.57070707070707  4.17462365591398 4.68855218855219  4.45161290322581 4.92424242424242  L 8.8141935483871 8.6489898989899  L 18.5483870967742 0.353535353535354  C 18.825376344086 0.117845117845117  19.1617204301075 0  19.5574193548387 0  C 19.9531182795699 0  20.2894623655914 0.117845117845117  20.5664516129032 0.353535353535354  L 22.5845161290323 2.07070707070707  Z " fill-rule="nonzero" fill="#9dc888" stroke="none" transform="matrix(1 0 0 1 15 56 )" />
  </g>
</svg>